# xmcd CD database file
#
# Track frame offsets:
#	150
#	12517
#	30064
#	42948
#	56541
#	71777
#	85652
#	95736
#	108975
#	122980
#	136038
#	152123
#	167663
#
# Disc length: 2359 seconds
#
# Revision: 0
# Processed by: cddbd v1.5.1PL0 Copyright (c) Steve Scherf et al.
# Submitted via: Feurio! 1.67 - http://www.feurio.com
#
DISCID=a209350d
DTITLE=Frantisek Nedved - Mam jedno misto
DYEAR=2004
DGENRE=Country
TTITLE0=Mam jedno misto
TTITLE1=Znam te z mych snu
TTITLE2=Klaun
TTITLE3=Vim
TTITLE4=Ruze
TTITLE5=Nechci vic
TTITLE6=Rano
TTITLE7=Ted uz chapes, co me laka
TTITLE8=Byt kralem slunce
TTITLE9=Pojd ke mne bliz
TTITLE10=Jednou
TTITLE11=To staci
TTITLE12=Da se krasne zit
EXTD=
EXTT0=
EXTT1=
EXTT2=
EXTT3=
EXTT4=
EXTT5=
EXTT6=
EXTT7=
EXTT8=
EXTT9=
EXTT10=
EXTT11=
EXTT12=
PLAYORDER=
